<?xml version="1.0" encoding="UTF-8"?>
<svg width="188px" height="40px" viewBox="0 0 188 40" version="1.1" xmlns="http://www.w3.org/2000/svg" xmlns:xlink="http://www.w3.org/1999/xlink">
    <!-- Generator: sketchtool 47.1 (45422) - http://www.bohemiancoding.com/sketch -->
    <title>929BF1F4-5821-4B4C-8E59-B03425F74B57</title>
    <desc>Created with sketchtool.</desc>
    <defs>
        <polygon id="path-1" points="2.81533161e-20 0.107435897 2.81533161e-20 8.58230769 28.1914829 8.58230769 28.1914829 0.107435897 0 0.107435897"></polygon>
        <polygon id="path-3" points="0 40 187.726829 40 187.726829 0.285641026 0 0.285641026"></polygon>
    </defs>
    <g id="Page-1" stroke="none" stroke-width="1" fill="none" fill-rule="evenodd">
        <g id="Login_1-Copy-3" transform="translate(-546.000000, -133.000000)">
            <g id="logo" transform="translate(546.000000, 133.000000)">
                <rect id="Rectangle-6" x="0" y="0" width="188" height="40"></rect>
                <polygon id="Fill-1" fill="#000000" points="49 1 59 1 59 4.89119804 52.8177798 4.89119804 52.8177798 8.7079986 59 8.7079986 59 12.5394691 52.8177798 12.5394691 52.8177798 22 49 22"></polygon>
                <polygon id="Fill-2" fill="#000000" points="64.6787296 1 68.612772 1 73.5373435 15.6432064 78.5074687 1 82.4415111 1 86 22 82.0961502 22 79.8136958 8.73786238 75.3091722 22 71.7358519 22 67.2763523 8.73786238 64.9335127 22 61 22"></polygon>
                <g id="Group-32">
                    <path d="M91.1842066,12.7146154 L91.1842066,17.9771795 L92.1849691,17.9771795 C93.8343834,17.9771795 94.9384939,17.7735897 95.5123613,17.3664103 C96.0862287,16.9592308 96.3661514,16.3633333 96.3661514,15.5787179 C96.3661514,14.6915385 96.0275436,13.9941026 95.3648696,13.4848718 C94.6876541,12.9617949 93.5690022,12.7146154 92.0083945,12.7146154 L91.1842066,12.7146154 Z M91.1842066,4.87974359 L91.1842066,9.21153846 L92.0525381,9.21153846 C93.0242177,9.21153846 93.7460961,9.02230769 94.2166155,8.61512821 C94.6731127,8.20846154 94.9088917,7.67051282 94.9088917,6.9725641 C94.9088917,6.33307692 94.6876541,5.82435897 94.2462177,5.44641026 C93.8047812,5.06846154 93.1270464,4.87974359 92.2145713,4.87974359 L91.1842066,4.87974359 Z M87.2242619,21.7130769 L87.2242619,1.15820513 L90.5069912,1.15820513 C92.4062066,1.15820513 93.7902398,1.27410256 94.6731127,1.52128205 C95.9096541,1.84128205 96.9104166,2.45205128 97.6468365,3.33871795 C98.382737,4.21051282 98.750947,5.25717949 98.750947,6.46384615 C98.750947,7.24897436 98.573853,7.96128205 98.2503061,8.60076923 C97.9116983,9.22589744 97.3669138,9.83666667 96.6164718,10.3889744 C97.8675547,10.9705128 98.7950906,11.7115385 99.3840188,12.5982051 C99.972947,13.4705128 100.266892,14.5176923 100.266892,15.7094872 C100.266892,16.8720513 99.9584055,17.9187179 99.3544166,18.8787179 C98.750947,19.8228205 97.9703834,20.535641 97.0137646,21.0002564 C96.0571459,21.4802564 94.7463392,21.7130769 93.0683613,21.7130769 L87.2242619,21.7130769 Z" id="Fill-3" fill="#000000"></path>
                    <polygon id="Fill-5" fill="#000000" points="10.5994608 30.4058974 39.3208751 30.4058974 30.3555602 39.2587179 10.5994608 39.2587179"></polygon>
                    <polygon id="Fill-7" fill="#000000" points="30.0461912 0.591179487 39.3646552 9.18194872 39.3646552 28.5593846 30.0461912 28.5593846 30.0461912 0.678358974"></polygon>
                    <g id="Group-11" transform="translate(0.000000, 0.512821)">
                        <mask id="mask-2" fill="white">
                            <use xlink:href="#path-1"></use>
                        </mask>
                        <g id="Clip-10"></g>
                        <polygon id="Fill-9" fill="#65B32E" mask="url(#mask-2)" points="28.1914829 0.107435897 9.37746077 0.107435897 -0.000207734807 8.58230769 28.1914829 8.58230769"></polygon>
                    </g>
                    <polygon id="Fill-12" fill="#65B32E" points="0 10.9122051 8.80328177 10.9122051 8.80328177 39.1424615 0 30.464"></polygon>
                    <path d="M114.709031,16.0434359 C114.709031,16.7706154 114.679429,17.3229231 114.620224,17.700359 C114.546998,18.0788205 114.399506,18.3839487 114.193849,18.6018974 C113.972611,18.8198462 113.663606,18.980359 113.23671,19.0526667 C112.809815,19.1398462 112.206346,19.1834359 111.440843,19.1834359 C110.645738,19.1834359 110.042269,19.1106154 109.629915,18.9654872 C109.20302,18.8054872 108.908556,18.5439487 108.71744,18.180359 C108.510744,17.8172821 108.393373,17.3665128 108.34923,16.8142051 C108.305086,16.2618974 108.275484,15.4039487 108.275484,14.2701026 C108.275484,13.0783077 108.305086,12.220359 108.34923,11.6680513 C108.393373,11.1301026 108.510744,10.6798462 108.702898,10.3162564 C108.878954,9.95266667 109.188478,9.69112821 109.614854,9.53112821 C110.042269,9.386 110.645738,9.31317949 111.440843,9.31317949 C112.750611,9.31317949 113.634523,9.47317949 114.060898,9.80753846 C114.502854,10.1418974 114.709031,10.8685641 114.709031,12.0024103 L118.374512,12.0024103 C118.374512,10.8398462 118.22702,9.89471795 117.933075,9.16753846 C117.638611,8.44087179 117.211197,7.8885641 116.637329,7.52497436 C116.078003,7.14702564 115.371186,6.89984615 114.546998,6.75471795 C113.707749,6.62394872 112.677385,6.566 111.440843,6.566 C109.968523,6.566 108.776125,6.71112821 107.86313,7.01625641 C106.965716,7.32189744 106.27344,7.78651282 105.816943,8.41215385 C105.346423,9.02241026 105.036898,9.79317949 104.874865,10.7085641 C104.698291,11.6244615 104.624545,12.8167692 104.624545,14.2701026 C104.624545,15.8547179 104.712832,17.1193333 104.919009,18.0788205 C105.110644,19.0526667 105.449252,19.8085641 105.934832,20.3752308 C106.40639,20.9424103 107.098147,21.3347179 107.966478,21.5824103 C108.849871,21.8147179 110.012666,21.9306154 111.440843,21.9306154 C112.794755,21.9306154 113.898865,21.8583077 114.753175,21.6983077 C115.621506,21.5383077 116.313782,21.2475385 116.843506,20.826 C117.37323,20.4044615 117.771042,19.8085641 118.006821,19.0526667 C118.242081,18.2818974 118.374512,17.2793333 118.374512,16.0434359 L114.709031,16.0434359 Z" id="Fill-14" fill="#65B32E"></path>
                    <path d="M129.636439,21.7710769 L129.636439,21.7710769 L133.301919,21.7710769 L133.301919,12.3367179 C133.301919,11.0864615 133.169488,10.0690256 132.904627,9.31312821 C132.639245,8.54287179 132.242472,7.96133333 131.697687,7.58338462 C131.167444,7.1905641 130.475168,6.91466667 129.636439,6.76953846 C128.811731,6.63825641 127.722162,6.56594872 126.397853,6.56594872 C125.337886,6.56594872 124.439433,6.59466667 123.733135,6.66748718 C123.011776,6.75466667 122.364162,6.92902564 121.775234,7.21979487 C121.186306,7.5105641 120.715267,7.96133333 120.37666,8.58646154 C120.038052,9.22594872 119.876019,10.0690256 119.876019,11.1156923 L123.526958,11.1156923 C123.526958,10.2290256 123.762218,9.66184615 124.233776,9.41466667 C124.704814,9.15312821 125.426173,9.02235897 126.397853,9.02235897 C127.148295,9.02235897 127.737223,9.08030769 128.17866,9.19671795 C128.620615,9.31312821 128.93014,9.48748718 129.150339,9.73466667 C129.356516,9.98184615 129.504008,10.3018462 129.562693,10.6941538 C129.606836,11.0864615 129.636439,11.6244103 129.636439,12.322359 L129.636439,14.2700513 L129.53361,14.2700513 C129.135798,13.4997949 128.591013,13.0203077 127.870173,12.8310769 C127.162836,12.6418462 126.191676,12.5403077 124.969676,12.5403077 C122.997234,12.5403077 121.569057,12.8746667 120.656063,13.5433846 C119.743588,14.2121026 119.287091,15.4182564 119.287091,17.148 C119.287091,18.1510769 119.419522,18.9654359 119.684903,19.5905641 C119.949765,20.2156923 120.317975,20.7100513 120.818615,21.0444103 C121.304196,21.3931282 121.893124,21.6259487 122.570339,21.7567179 C123.247035,21.8726154 124.04266,21.9310769 124.969676,21.9310769 C125.558085,21.9310769 126.058726,21.9162051 126.500682,21.8874872 C126.927577,21.8438974 127.354472,21.7567179 127.781367,21.6403077 C128.208262,21.5090256 128.591013,21.3059487 128.93014,21.0151795 C129.268229,20.7387692 129.53361,20.3464615 129.695124,19.8808205 L129.783411,19.8808205 L129.636439,21.7710769 Z M126.279964,15.0110769 C126.83929,15.0110769 127.310328,15.0259487 127.663477,15.0551795 C128.031687,15.0844103 128.370295,15.1715897 128.664759,15.302359 C128.974284,15.4474872 129.209544,15.6659487 129.386118,15.9705641 C129.562693,16.2618462 129.636439,16.653641 129.636439,17.148 C129.636439,18.122359 129.371057,18.7618462 128.826273,19.0382564 C128.296549,19.3285128 127.442759,19.4741538 126.279964,19.4741538 C124.969676,19.4741538 124.086284,19.3433846 123.630306,19.0674872 C123.173809,18.8054359 122.938549,18.1659487 122.938549,17.148 C122.938549,16.6392821 123.026317,16.2326154 123.18835,15.9418462 C123.350383,15.6367179 123.586162,15.4331282 123.865566,15.2874872 C124.16003,15.1572308 124.483577,15.0844103 124.837245,15.0551795 C125.205455,15.0259487 125.676494,15.0110769 126.279964,15.0110769 L126.279964,15.0110769 Z" id="Fill-16" fill="#65B32E"></path>
                    <path d="M139.293355,6.72548718 L139.293355,6.72548718 L135.642935,6.72548718 L135.642935,28.2690769 L139.293355,28.2690769 L139.293355,19.7649744 L139.440846,19.7649744 C139.808537,20.6080513 140.382924,21.1752308 141.178029,21.4798462 C141.972614,21.7854872 142.915211,21.9306154 144.019322,21.9306154 C145.299487,21.9306154 146.31531,21.7711282 147.095874,21.4367692 C147.861377,21.1024103 148.450305,20.6229231 148.847598,20.0121538 C149.244891,19.4018974 149.510272,18.6747179 149.642703,17.831641 C149.775134,16.9736923 149.84888,15.9270256 149.84888,14.691641 C149.84888,13.2818974 149.804217,12.1188205 149.701388,11.2321538 C149.613101,10.3306154 149.377841,9.51676923 149.009631,8.80446154 C148.641421,8.09215385 148.052493,7.53933333 147.257907,7.14702564 C146.447741,6.75471795 145.373233,6.56548718 144.019322,6.56548718 C142.841465,6.56548718 141.869786,6.72548718 141.089741,7.07471795 C140.323719,7.4234359 139.705708,8.06292308 139.263752,8.99317949 L139.146382,8.99317949 L139.293355,6.72548718 Z M142.944294,19.1834359 C141.442891,19.1834359 140.45615,18.8639487 139.985631,18.2095897 C139.529134,17.5695897 139.293355,16.3926667 139.293355,14.691641 C139.293355,13.5726667 139.322957,12.6998462 139.382161,12.1039487 C139.440846,11.4936923 139.573277,10.9849744 139.793996,10.5634359 C140.029775,10.1418974 140.382924,9.83625641 140.883565,9.61830769 C141.383686,9.41471795 142.075443,9.31317949 142.944294,9.31317949 C143.724338,9.31317949 144.328327,9.41471795 144.769764,9.63266667 C145.211719,9.85112821 145.535786,10.1854872 145.741443,10.6070256 C145.94762,11.0429231 146.080051,11.551641 146.124194,12.1475385 C146.168338,12.7295897 146.19794,13.5870256 146.19794,14.691641 C146.19794,15.6511282 146.139255,16.4213846 146.035907,17.0029231 C145.932559,17.5844615 145.755985,18.0352308 145.535786,18.340359 C145.299487,18.6598462 144.97594,18.8783077 144.563587,19.0090769 C144.136692,19.1254872 143.606968,19.1834359 142.944294,19.1834359 L142.944294,19.1834359 Z" id="Fill-18" fill="#65B32E"></path>
                    <path d="M155.207191,0.285948718 L155.207191,0.285948718 L151.556771,0.285948718 L151.556771,3.35312821 L155.207191,3.35312821 L155.207191,0.285948718 Z M151.556771,21.7710769 L155.207191,21.7710769 L155.207191,6.7254359 L151.556771,6.7254359 L151.556771,21.7710769 Z" id="Fill-20" fill="#65B32E"></path>
                    <path d="M155.51656,9.48769231 L157.430317,9.48769231 L157.430317,17.2066667 C157.430317,18.1805128 157.518604,18.98 157.695179,19.5758974 C157.871754,20.1717949 158.151676,20.6517949 158.534428,20.985641 C158.917179,21.3348718 159.446903,21.5820513 160.094516,21.7276923 C160.75719,21.8584615 161.61098,21.9307692 162.656406,21.9307692 C163.642627,21.9307692 164.452273,21.8435897 165.085345,21.6548718 C165.732958,21.465641 166.233599,21.1461538 166.630892,20.6953846 C167.014162,20.2446154 167.293566,19.6487179 167.455599,18.8928205 C167.617632,18.1369231 167.705919,17.1774359 167.705919,16.014359 L164.481875,16.014359 C164.481875,17.1917949 164.363986,18.0205128 164.143267,18.485641 C163.922549,18.9512821 163.421908,19.1835897 162.656406,19.1835897 C161.964649,19.1835897 161.522693,19.0528205 161.36066,18.7907692 C161.198627,18.5148718 161.110339,17.9917949 161.081256,17.2066667 L161.081256,17.1774359 L161.081256,9.48769231 L166.910814,9.48769231 L166.910814,6.72564103 L161.081256,6.72564103 L161.081256,3.32410256 L157.430317,3.32410256 L157.430317,6.72564103 L155.51656,6.72564103 L155.51656,9.48769231 Z" id="Fill-22" fill="#65B32E"></path>
                    <path d="M178.27557,21.7710769 L178.27557,21.7710769 L181.926509,21.7710769 L181.926509,12.3367179 C181.926509,11.0864615 181.794078,10.0690256 181.543758,9.31312821 C181.278896,8.54287179 180.881603,7.96133333 180.336819,7.58338462 C179.792034,7.1905641 179.114819,6.91466667 178.27557,6.76953846 C177.451382,6.63825641 176.361813,6.56594872 175.021924,6.56594872 C173.961957,6.56594872 173.079084,6.59466667 172.357206,6.66748718 C171.650907,6.75466667 170.988752,6.92902564 170.399824,7.21979487 C169.810896,7.5105641 169.354399,7.96133333 169.015791,8.58646154 C168.677703,9.22594872 168.500609,10.0690256 168.500609,11.1156923 L172.151548,11.1156923 C172.151548,10.2290256 172.401869,9.66184615 172.872907,9.41466667 C173.343946,9.15312821 174.065824,9.02235897 175.021924,9.02235897 C175.787946,9.02235897 176.376874,9.08030769 176.81831,9.19671795 C177.245206,9.31312821 177.569272,9.48748718 177.789471,9.73466667 C177.996167,9.98184615 178.128598,10.3018462 178.187283,10.6941538 C178.245968,11.0864615 178.27557,11.6244103 178.27557,12.322359 L178.27557,14.2700513 L178.157681,14.2700513 C177.774929,13.4997949 177.230145,13.0203077 176.509305,12.8310769 C175.787946,12.6418462 174.830808,12.5403077 173.609327,12.5403077 C171.636366,12.5403077 170.193648,12.8746667 169.281172,13.5433846 C168.382719,14.2121026 167.926222,15.4182564 167.926222,17.148 C167.926222,18.1510769 168.059172,18.9654359 168.309493,19.5905641 C168.574355,20.2156923 168.957106,20.7100513 169.442686,21.0444103 C169.943327,21.3931282 170.517714,21.6259487 171.19441,21.7567179 C171.872145,21.8726154 172.681791,21.9310769 173.609327,21.9310769 C174.183194,21.9310769 174.698377,21.9162051 175.125791,21.8874872 C175.566708,21.8438974 175.993603,21.7567179 176.421018,21.6403077 C176.847913,21.5090256 177.230145,21.3059487 177.569272,21.0151795 C177.90788,20.7387692 178.157681,20.3464615 178.334255,19.8808205 L178.423062,19.8808205 L178.27557,21.7710769 Z M174.919095,15.0110769 C175.478421,15.0110769 175.934918,15.0259487 176.303128,15.0551795 C176.670819,15.0844103 177.009427,15.1715897 177.303891,15.302359 C177.598355,15.4474872 177.848675,15.6659487 178.010708,15.9705641 C178.187283,16.2618462 178.27557,16.653641 178.27557,17.148 C178.27557,18.122359 178.010708,18.7618462 177.465924,19.0382564 C176.921659,19.3285128 176.067349,19.4741538 174.919095,19.4741538 C173.594266,19.4741538 172.710874,19.3433846 172.254377,19.0674872 C171.79788,18.8054359 171.577681,18.1659487 171.577681,17.148 C171.577681,16.6392821 171.665449,16.2326154 171.828001,15.9418462 C171.989515,15.6367179 172.210233,15.4331282 172.505217,15.2874872 C172.799161,15.1572308 173.123228,15.0844103 173.476896,15.0551795 C173.829526,15.0259487 174.315625,15.0110769 174.919095,15.0110769 L174.919095,15.0110769 Z" id="Fill-24" fill="#65B32E"></path>
                    <mask id="mask-4" fill="white">
                        <use xlink:href="#path-3"></use>
                    </mask>
                    <g id="Clip-27"></g>
                    <polygon id="Fill-26" fill="#65B32E" mask="url(#mask-4)" points="184.076409 21.7712821 187.726829 21.7712821 187.726829 0.286153846 184.076409 0.286153846"></polygon>
                    <path d="M51.7160994,34.9556923 L51.7160994,34.9556923 L52.8202099,34.9556923 C53.3795359,34.9992821 53.9684641,35.0428718 54.233326,35.6244103 C54.277989,35.7264615 54.336674,35.8859487 54.336674,36.1474872 C54.336674,36.2644103 54.3070718,36.5982564 54.1304972,36.8746667 C53.7918895,37.3254359 53.2325635,37.3546667 52.7173812,37.3690256 L51.7160994,37.3690256 L51.7160994,34.9556923 Z M51.7160994,30.3044103 L51.7160994,30.3044103 L52.4374586,30.3044103 C52.5698895,30.3331282 53.482884,30.2895385 53.7622873,31.0162051 C53.8064309,31.1762051 53.8214917,31.3797949 53.8214917,31.4382564 C53.8214917,31.6705641 53.7622873,31.9033846 53.6298564,32.0777436 C53.2621657,32.6008205 52.5257459,32.5572308 52.3787735,32.5721026 L51.7160994,32.5721026 L51.7160994,30.3044103 Z M48.507116,27.9346667 L48.507116,39.7526154 L52.3341105,39.7526154 C54.1600994,39.7238974 56.3974033,39.7238974 57.295337,38.153641 C57.6931492,37.4705641 57.7076906,36.7731282 57.7076906,36.4967179 C57.7076906,36.0459487 57.6490055,34.6797949 56.3974033,33.8797949 C56.1325414,33.7054359 55.7643315,33.5751795 55.4703867,33.4582564 C55.4994696,33.4290256 55.7497901,33.2838974 55.9414254,33.1244103 C56.8393591,32.368 56.9125856,31.3946667 56.9125856,30.9874872 C56.9125856,30.2751795 56.7064088,29.7808205 56.5739779,29.5187692 C55.7939337,27.9633846 53.9684641,27.9490256 52.4961436,27.9346667 L48.507116,27.9346667 Z" id="Fill-28" fill="#000000" mask="url(#mask-4)"></path>
                    <path d="M63.4344199,34.0106667 L63.4344199,34.0106667 C64.4798453,34.0106667 64.8771381,34.6214359 65.0095691,35.0137436 C65.1123978,35.2901538 65.1274586,35.5809231 65.1274586,35.6829744 C65.1274586,36.6855385 64.5089282,37.1650256 64.155779,37.3255385 C63.8462541,37.4563077 63.5227072,37.4563077 63.4048177,37.4563077 C62.3889945,37.4563077 61.9771602,36.918359 61.8151271,36.5404103 C61.6821768,36.2060513 61.6821768,35.9152821 61.6821768,35.7701538 C61.6821768,34.6942564 62.3599116,34.2578462 62.7421436,34.1127179 C63.0220663,34.0106667 63.360674,34.0106667 63.4344199,34.0106667 L63.4344199,34.0106667 Z M64.8771381,32.4557949 C64.5972155,32.1793846 64.5089282,32.1065641 64.3178122,31.9906667 C63.5372486,31.4527179 62.6834586,31.4378462 62.3599116,31.4378462 C61.7268398,31.4378462 60.2249171,31.5250256 59.2241547,33.0373333 C58.5027956,34.1275897 58.4731934,35.3629744 58.4731934,35.7845128 C58.4731934,37.7029744 59.2979006,38.7209231 59.9600552,39.229641 C60.8875912,39.9414359 61.8442099,39.9998974 62.2716243,39.9998974 C63.6992818,39.9998974 64.4206409,39.3747692 64.8771381,39.0260513 L64.8329945,39.7527179 L67.9978343,39.7527179 L67.9978343,31.6706667 L64.8329945,31.6706667 L64.8771381,32.4557949 Z" id="Fill-29" fill="#000000" mask="url(#mask-4)"></path>
                    <path d="M78.4353138,34.4468718 C78.4207724,33.7781538 78.3911702,33.5171282 78.2883414,33.1822564 C78.0821646,32.5135385 77.4636343,31.4381538 75.6823083,31.4381538 C74.0780762,31.4089231 73.2684298,32.252 72.8119326,32.7027692 L72.8706177,31.6704615 L69.7057779,31.6704615 L69.7057779,39.7530256 L72.8119326,39.7530256 L72.8119326,35.6535385 C72.8119326,35.4791795 72.7973912,34.6068718 73.4299436,34.1853333 C73.6953249,34.0104615 74.0043304,34.0104615 74.1076785,34.0104615 C74.4457669,34.0104615 74.6670044,34.1130256 74.7843746,34.1709744 C75.2850155,34.5196923 75.3146177,35.1155897 75.3146177,35.6535385 L75.3146177,39.7530256 L78.4353138,39.7530256 L78.4353138,34.4468718 Z" id="Fill-30" fill="#000000" mask="url(#mask-4)"></path>
                    <polygon id="Fill-31" fill="#000000" mask="url(#mask-4)" points="83.2934519 34.8830769 83.2934519 27.2369231 80.2168994 27.2369231 80.2168994 39.7528205 83.2934519 39.7528205 83.2934519 36.7 86.119684 39.7528205 89.9768 39.7528205 85.987253 35.6682051 89.653253 31.6702564 85.8844243 31.6702564"></polygon>
                </g>
            </g>
        </g>
    </g>
</svg>